<svg width="586" height="586" viewBox="0 0 586 586" fill="none" xmlns="http://www.w3.org/2000/svg">
<circle cx="293" cy="293" r="293" fill="#081736"/>
<path d="M313.392 380.987C316.947 372.701 319.604 364.07 321.365 355.167C329.88 362.43 340.588 368.376 346.887 371.147C356.034 375.192 366.001 377.225 376.536 377.225C392.738 377.225 407.454 372.729 420.255 363.817C423.773 361.375 427.506 357.387 431.101 352.872C443.667 337.08 464.912 331.062 483.87 337.98L506.776 346.326L505.389 350.02C502.203 358.425 498.275 366.417 493.642 373.923C491.024 378.144 488.19 382.209 485.161 386.079C476.679 396.887 466.691 406.346 455.474 414.223C444.256 422.099 431.826 428.315 418.555 432.671C413.375 434.372 408.06 435.759 402.606 436.815C394.065 438.458 385.193 439.298 376.105 439.298C357.148 439.298 338.728 436.205 322.183 428.276C311.358 423.087 301.649 416.76 294.95 411.999C302.368 402.622 308.564 392.257 313.392 380.987Z" fill="url(#paint0_linear_1_3)"/>
<path d="M503.845 353.813L490.135 348.818C471.176 341.9 449.934 347.92 437.366 363.71C433.77 368.225 430.038 372.211 426.52 374.655C413.718 383.567 399.002 388.061 382.8 388.061C382.093 388.061 381.271 387.994 380.351 387.868C351.322 383.882 322.869 395.822 304.597 418.459C300.97 416.166 297.697 413.947 294.95 411.995C302.366 402.624 308.562 392.258 313.39 380.988C316.945 372.702 319.602 364.071 321.364 355.167C329.879 362.43 340.586 368.376 346.886 371.147C356.032 375.193 365.999 377.225 376.534 377.225C392.736 377.225 407.452 372.73 420.253 363.817C423.772 361.375 427.504 357.388 431.1 352.873C443.666 337.08 464.91 331.062 483.868 337.981L506.774 346.327L505.387 350.021C504.9 351.299 504.366 352.551 503.845 353.813Z" fill="url(#paint1_linear_1_3)"/>
<path d="M508 243.017C508 243.017 495.394 213.428 486.931 202.19C478.45 190.952 468.384 181.102 457.03 172.953C445.635 164.763 432.912 158.334 419.213 153.82C405.513 149.305 391.011 147 376.117 147C357.141 147 339.004 150.636 322.236 157.788C305.447 164.921 290.593 174.908 278.047 187.456C265.5 200.005 255.512 214.877 248.379 231.645C241.227 248.413 237.591 266.551 237.591 285.527C237.591 289.084 237.767 292.602 238.022 296.101V328.562C238.022 335.129 236.75 341.441 234.27 347.343C231.768 353.265 228.309 358.464 223.989 362.784C219.67 367.102 214.472 370.562 208.549 373.064C196.744 378.048 182.79 378.048 170.966 373.064C170.966 373.064 170.946 373.064 170.908 373.044C165.005 370.543 159.826 367.084 155.527 362.784C151.209 358.464 147.749 353.267 145.247 347.343C142.764 341.46 141.495 335.148 141.495 328.562V183.4C141.495 166.147 127.508 152.159 110.253 152.159C93.0003 152.159 79.0121 166.145 79.0121 183.4V328.562C79.0121 343.825 81.9237 358.367 87.6694 371.754C93.3959 385.122 101.369 396.965 111.358 406.953C121.364 416.959 133.209 424.934 146.557 430.64C159.944 436.385 174.486 439.297 189.768 439.297C205.031 439.297 219.573 436.385 232.96 430.64C246.308 424.932 258.151 416.959 268.159 406.953C278.165 396.947 286.119 385.123 291.845 371.754C297.591 358.367 300.503 343.825 300.503 328.562V285.527C300.503 274.972 302.477 265.005 306.386 255.84C310.294 246.674 315.767 238.523 322.645 231.645C329.545 224.746 337.713 219.195 346.9 215.13C356.046 211.104 366.013 209.052 376.548 209.052C393.277 209.052 408.229 213.9 421.011 223.455C425.096 226.504 429.512 231.664 433.618 237.292C444.62 252.36 464.164 258.498 481.753 252.283L508 243.017Z" fill="url(#paint2_linear_1_3)"/>
<path d="M111.346 394.44C121.351 404.446 133.196 412.421 146.545 418.127C159.932 423.872 174.474 426.784 189.756 426.784C205.019 426.784 219.561 423.872 232.948 418.127C246.296 412.419 258.139 404.446 268.147 394.44C278.153 384.434 286.107 372.61 291.833 359.241C297.579 345.854 300.491 331.312 300.491 316.049V328.559C300.491 343.822 297.579 358.364 291.833 371.751C286.107 385.118 278.153 396.942 268.147 406.95C258.141 416.956 246.296 424.931 232.948 430.636C219.561 436.382 205.019 439.293 189.756 439.293C174.472 439.293 159.932 436.382 146.545 430.636C133.196 424.929 121.353 416.956 111.346 406.95C101.359 396.963 93.3856 385.12 87.6574 371.751C81.9116 358.364 79 343.822 79 328.559V316.049C79 331.314 81.9116 345.854 87.6574 359.241C93.3838 372.61 101.359 384.454 111.346 394.44Z" fill="url(#paint3_linear_1_3)"/>
<path d="M300.491 273.014C300.491 262.459 302.466 252.492 306.374 243.327C310.283 234.161 315.756 226.01 322.634 219.13C329.533 212.231 337.702 206.681 346.888 202.616C356.034 198.589 366.002 196.538 376.537 196.538C393.266 196.538 408.218 201.385 421 210.941C425.084 213.989 429.501 219.15 433.606 224.778C444.609 239.845 464.153 245.983 481.742 239.768L492.205 236.074C498.469 233.864 505.383 236.902 507.988 243.012L481.74 252.278C464.151 258.493 444.607 252.355 433.604 237.287C429.501 231.659 425.082 226.499 420.998 223.45C408.216 213.893 393.266 209.047 376.535 209.047C366.002 209.047 356.033 211.099 346.887 215.125C337.702 219.19 329.531 224.741 322.632 231.64C315.752 238.52 310.281 246.669 306.372 255.835C302.464 265 300.489 274.969 300.489 285.522V273.014H300.491Z" fill="url(#paint4_linear_1_3)"/>
<path d="M403.362 251.47C367.514 259.717 340.321 290.829 338.035 328.637C332.074 320.145 328.563 309.774 328.563 298.668C328.563 269.843 351.999 246.407 380.824 246.407C388.827 246.407 396.503 248.203 403.362 251.47Z" fill="white"/>
<path d="M433.087 298.669C433.087 327.494 409.651 350.93 380.826 350.93C370.537 350.93 360.901 347.99 352.817 342.846C352.409 339.743 352.164 336.477 352.164 333.21C352.164 295.484 382.296 264.78 419.859 263.964C428.025 273.11 433.087 285.277 433.087 298.669Z" fill="white"/>
<path d="M347.756 334.19C347.756 335.905 347.838 337.62 347.919 339.335C346.123 337.865 344.49 336.313 342.857 334.68C342.857 334.19 342.857 333.7 342.857 333.21C342.857 293.688 372.09 260.943 410.143 255.471C412.103 256.778 413.9 258.248 415.614 259.799C377.643 263.229 347.756 295.158 347.756 334.19Z" fill="white"/>
<defs>
<linearGradient id="paint0_linear_1_3" x1="506.776" y1="387.22" x2="294.95" y2="387.22" gradientUnits="userSpaceOnUse">
<stop stop-color="#7AB7FF"/>
<stop offset="1" stop-color="#1A80F8"/>
</linearGradient>
<linearGradient id="paint1_linear_1_3" x1="506.774" y1="376.8" x2="294.95" y2="376.8" gradientUnits="userSpaceOnUse">
<stop stop-color="#7AB7FF"/>
<stop offset="1" stop-color="#1A80F8"/>
</linearGradient>
<linearGradient id="paint2_linear_1_3" x1="508" y1="293.149" x2="79.0121" y2="293.149" gradientUnits="userSpaceOnUse">
<stop stop-color="#7AB7FF"/>
<stop offset="1" stop-color="#1A80F8"/>
</linearGradient>
<linearGradient id="paint3_linear_1_3" x1="300.491" y1="377.671" x2="79" y2="377.671" gradientUnits="userSpaceOnUse">
<stop stop-color="#7AB7FF"/>
<stop offset="1" stop-color="#1A80F8"/>
</linearGradient>
<linearGradient id="paint4_linear_1_3" x1="507.988" y1="241.03" x2="300.489" y2="241.03" gradientUnits="userSpaceOnUse">
<stop stop-color="#7AB7FF"/>
<stop offset="1" stop-color="#1A80F8"/>
</linearGradient>
</defs>
</svg>
