<svg xmlns="http://www.w3.org/2000/svg" width="173" height="33" fill="none" xmlns:v="https://vecta.io/nano"><path d="M26.016 25.97c.394-.92.689-1.878.885-2.866.945.806 2.134 1.466 2.833 1.774 1.015.449 2.121.675 3.291.675 1.798 0 3.432-.499 4.852-1.488.391-.271.805-.714 1.204-1.215 1.395-1.753 3.753-2.421 5.857-1.653l2.542.926-.154.41a15.52 15.52 0 0 1-1.304 2.653 15.1 15.1 0 0 1-.941 1.349c-.941 1.2-2.05 2.249-3.295 3.124a15.58 15.58 0 0 1-4.098 2.048 14.54 14.54 0 0 1-1.77.46c-.948.182-1.933.275-2.941.275-2.104 0-4.149-.343-5.985-1.223-1.202-.576-2.279-1.278-3.023-1.807.823-1.041 1.511-2.191 2.047-3.442z" fill="url(#A)"/><path d="M47.154 22.953l-1.522-.554c-2.104-.768-4.462-.1-5.857 1.653-.399.501-.813.944-1.204 1.215-1.421.989-3.054 1.488-4.852 1.488a2.04 2.04 0 0 1-.272-.021c-3.222-.442-6.38.883-8.408 3.395l-1.071-.717a15.14 15.14 0 0 0 2.047-3.441c.395-.92.689-1.878.885-2.866.945.806 2.134 1.466 2.833 1.774 1.015.449 2.121.675 3.291.675 1.798 0 3.432-.499 4.852-1.488.391-.271.805-.714 1.204-1.215 1.395-1.753 3.753-2.421 5.857-1.653l2.542.926-.154.41-.171.421z" fill="url(#B)"/><path d="M47.615 10.657s-1.399-3.284-2.338-4.531a15.43 15.43 0 0 0-3.319-3.245A15.47 15.47 0 0 0 37.761.757C36.24.256 34.63 0 32.977 0c-2.106 0-4.119.404-5.98 1.197s-3.512 1.9-4.904 3.293A15.45 15.45 0 0 0 18.8 9.395c-.794 1.861-1.197 3.874-1.197 5.98l.048 1.174v3.603c0 .729-.141 1.43-.417 2.085a5.35 5.35 0 0 1-1.141 1.714c-.479.479-1.056.863-1.714 1.141a5.45 5.45 0 0 1-4.171 0 5.35 5.35 0 0 1-1.714-1.141c-.479-.479-.863-1.056-1.141-1.714a5.33 5.33 0 0 1-.416-2.085V4.04A3.47 3.47 0 0 0 3.469.573 3.47 3.47 0 0 0 .002 4.04v16.111c0 1.694.323 3.308.961 4.794s1.521 2.798 2.629 3.907 2.425 1.996 3.907 2.629 3.1.961 4.796.961 3.308-.323 4.794-.961 2.796-1.518 3.907-2.629 1.993-2.423 2.629-3.907.961-3.1.961-4.794v-4.776c0-1.171.219-2.278.653-3.295s1.041-1.922 1.805-2.685a8.85 8.85 0 0 1 2.692-1.833 8.11 8.11 0 0 1 3.291-.675c1.857 0 3.516.538 4.935 1.599.453.338.944.911 1.399 1.536 1.221 1.672 3.39 2.354 5.343 1.664l2.913-1.028z" fill="url(#C)"/><path d="M3.59 27.464c1.111 1.111 2.425 1.996 3.907 2.629s3.1.961 4.796.961 3.308-.323 4.794-.961 2.796-1.518 3.907-2.629a12.38 12.38 0 0 0 2.629-3.907c.638-1.486.961-3.1.961-4.794v1.388c0 1.694-.323 3.308-.961 4.794s-1.518 2.796-2.629 3.907-2.425 1.996-3.907 2.629-3.1.961-4.794.961-3.31-.323-4.796-.961-2.796-1.518-3.907-2.629-1.993-2.423-2.629-3.907S0 21.846 0 20.152v-1.388c0 1.694.323 3.308.961 4.794s1.521 2.798 2.629 3.907z" fill="url(#D)"/><path d="M24.582 13.987a8.34 8.34 0 0 1 .653-3.295c.434-1.017 1.041-1.922 1.805-2.686a8.85 8.85 0 0 1 2.692-1.833 8.11 8.11 0 0 1 3.291-.675c1.857 0 3.516.538 4.935 1.599.453.338.944.911 1.399 1.536 1.221 1.672 3.39 2.354 5.343 1.664l1.161-.41a1.4 1.4 0 0 1 1.752.77l-2.913 1.028c-1.952.69-4.121.009-5.343-1.664-.456-.625-.946-1.197-1.399-1.536-1.419-1.061-3.078-1.599-4.935-1.599a8.11 8.11 0 0 0-3.291.675 8.85 8.85 0 0 0-2.692 1.833 8.48 8.48 0 0 0-1.805 2.685c-.434 1.017-.653 2.124-.653 3.295v-1.388h0z" fill="url(#E)"/><path d="M36 11.593a9.39 9.39 0 0 0-7.251 8.565 5.78 5.78 0 0 1-1.051-3.326 5.81 5.81 0 0 1 5.801-5.801c.888 0 1.74.199 2.501.562zm3.298 5.239a5.81 5.81 0 0 1-5.8 5.801c-1.142 0-2.211-.326-3.109-.897-.045-.344-.072-.707-.072-1.069 0-4.187 3.344-7.595 7.513-7.686a5.77 5.77 0 0 1 1.468 3.852zm-9.47 3.942l.018.571c-.199-.163-.381-.335-.562-.517v-.163c0-4.387 3.245-8.021 7.468-8.628.218.145.417.308.607.48a8.29 8.29 0 0 0-7.531 8.257z" fill="#fff"/><path d="M162.402 11.09h-5.199V7.069H173v4.021h-5.199v14.476h-5.399V11.09zm-47.935-4.021h5.4v6.52l5.601-6.52h6.146l-6.52 7.583 6.98 10.914h-5.745l-4.567-7.468-1.895 2.126v5.342h-5.4V7.069zm-7.709 18.784c-3.351 0-5.907-.814-7.669-2.441-1.762-1.647-2.642-3.983-2.642-7.008 0-3.121.862-5.505 2.585-7.152 1.743-1.647 4.309-2.47 7.698-2.47 1.091 0 2.078.086 2.958.258a15.65 15.65 0 0 1 2.7.718v4.71c-1.647-.728-3.408-1.091-5.285-1.091-1.761 0-3.063.402-3.906 1.206-.823.804-1.235 2.077-1.235 3.82 0 1.685.431 2.92 1.293 3.705.88.766 2.182 1.149 3.906 1.149 1.895 0 3.657-.354 5.285-1.063v4.739c-1.781.613-3.677.919-5.687.919z" fill="#6aaefe"/><path d="M70.793 7.069h9.622c2.183 0 3.83.594 4.94 1.781s1.666 2.786 1.666 4.797c0 1.225-.306 2.317-.919 3.274-.613.938-1.446 1.666-2.499 2.183a2.73 2.73 0 0 1 .546.603c.154.23.326.565.517 1.005l2.125 4.854h-5.63l-1.953-4.452c-.153-.345-.345-.584-.574-.718-.211-.153-.517-.23-.919-.23h-1.522v5.4h-5.4V7.069zm8.243 8.961c.785 0 1.388-.201 1.81-.603.44-.421.661-1.015.661-1.781 0-1.628-.766-2.441-2.298-2.441h-3.016v4.825h2.844zm-15.95 9.823c-3.351 0-5.907-.814-7.669-2.441-1.762-1.647-2.642-3.983-2.642-7.008 0-3.121.862-5.505 2.585-7.152 1.742-1.647 4.308-2.47 7.697-2.47 1.091 0 2.078.086 2.958.258a15.65 15.65 0 0 1 2.7.718v4.71c-1.647-.728-3.408-1.091-5.285-1.091-1.762 0-3.064.402-3.906 1.206-.823.804-1.235 2.077-1.235 3.82 0 1.685.431 2.92 1.292 3.705.881.766 2.183 1.149 3.906 1.149 1.896 0 3.657-.354 5.285-1.063v4.739c-1.781.613-3.676.919-5.687.919z" fill="#fff"/><path d="M150.035 10.868c0-1.244 1.008-2.252 2.252-2.252h0c1.244 0 2.253 1.008 2.253 2.252v14.606h-4.505V10.868z" fill="#6aaefe"/><path d="M145.882 7.368c-2.153.102-4.044 1.612-4.569 3.768a3.05 3.05 0 0 1-.234-1.826c.299-1.661 1.894-2.768 3.556-2.468a3.07 3.07 0 0 1 1.247.526zm1.225 3.031c-.3 1.663-1.895 2.771-3.557 2.471-.593-.107-1.118-.377-1.53-.758.009-.183.028-.374.063-.563.392-2.177 2.449-3.634 4.623-3.291.375.613.54 1.367.401 2.14zm-5.29 1.161l-.044.299a4.16 4.16 0 0 1-.243-.321l.015-.085a4.61 4.61 0 0 1 4.687-3.788 2.8 2.8 0 0 1 .27.307 4.38 4.38 0 0 0-4.685 3.589z" fill="#fff"/><g fill="#6aaefe"><path d="M147.21 25.566h-4.726V14.937a4.96 4.96 0 0 0 1.314.179c1.244 0 2.408-.47 3.412-1.285v11.734zm7.487-21.054s.046.017-2.1-.751l-4.218-1.509c-.505-.181-.849.892-.344 1.073l4.218 1.509 2.1.751c1.011.362 1.102-.802.344-1.073z"/><path d="M150.593 4.437c-.039.132-.312.045-.486-.022l-.323-.126c-.173-.068-.332-.149-.293-.282l.392-1.332c.039-.132.216-.112.389-.044l.323.126c.174.068.429.216.39.348l-.392 1.332z"/><path d="M151.33 4.69c-.04.134-.191.095-.367.027l-.33-.128c-.177-.068-.185-.092-.145-.225l.4-1.347c.039-.134.066-.173.243-.104l.329.128c.177.069.31.169.27.303l-.4 1.347z"/><path d="M152.083 4.941c-.04.134-.064.144-.241.076l-.329-.128c-.177-.069-.312-.141-.272-.275l.399-1.347c.04-.134.193-.124.37-.055l.33.128c.177.069.182.12.143.254l-.4 1.347z"/><path d="M152.843 5.197c-.039.132-.176.098-.349.031l-.324-.126c-.173-.068-.468-.202-.429-.335l.392-1.332c.039-.132.352-.059.525.009l.324.126c.173.068.292.163.253.295l-.392 1.332z"/><path d="M153.584 5.448c-.04.134-.052.149-.229.08l-.329-.128c-.177-.069-.324-.145-.284-.279l.4-1.347c.039-.134.204-.119.381-.051l.329.128c.177.069.171.116.132.249l-.4 1.347z"/></g><g fill="#fff"><path d="M138.499 7.04c.594-.133 1.391-.287 2.178-.293a5.79 5.79 0 0 1 1.136.099l.141.032c.089-.047.179-.09.273-.126a2.23 2.23 0 0 1 .816-.148l-.117-.038a4.9 4.9 0 0 0-1.042-.197 6.13 6.13 0 0 0-1.205.028c-.817.096-1.61.34-2.197.537l-.707.25-.267.098.272-.069.719-.172zm-4.193 2.213c.252.011.611.043 1.035.113.849.134 1.956.47 2.964 1.033.506.276.987.613 1.46.907s.937.547 1.366.699a3.96 3.96 0 0 0 .487.144c-.163-.099-.317-.22-.457-.363a2.58 2.58 0 0 1-.399-.538 8.74 8.74 0 0 1-.8-.376l-1.525-.797c-1.071-.496-2.215-.748-3.08-.818a9.06 9.06 0 0 0-1.049-.034l-.295.012-.104.005.104.003.293.011z" fill-opacity=".2"/><path d="M135.395 8.839l-.294-.014.29.044.76.137c.625.128 1.453.338 2.227.686.777.334 1.478.848 2.06 1.175l.189.106a2.96 2.96 0 0 1-.17-.52l-.046-.248-.74-.36c-.366-.179-.771-.355-1.185-.487-.826-.273-1.679-.397-2.318-.46l-.773-.059z" fill-opacity=".2"/><path d="M136.969 8.55l-.201-.004.197.034.515.105a10.93 10.93 0 0 1 1.521.468 11.13 11.13 0 0 1 1.376.652 3.43 3.43 0 0 1 .037-.607 11.41 11.41 0 0 0-1.322-.385 11.04 11.04 0 0 0-1.594-.236l-.529-.026z" fill-opacity=".2"/><path d="M137.914 8.248l.538.068c.321.048.744.137 1.156.259a9.22 9.22 0 0 1 .869.307 3.58 3.58 0 0 1 .173-.518 9.73 9.73 0 0 0-.978-.137c-.44-.037-.881-.039-1.21-.021l-.548.042zm1.031-.515s.185-.001.457.026a5.34 5.34 0 0 1 .976.188l.405.138a3.28 3.28 0 0 1 .27-.424c-.194-.03-.405-.053-.617-.063-.376-.016-.751.009-1.03.051l-.461.084z" fill-opacity=".2"/><path d="M140.34 7.106l-.397.096.397.014c.236.015.548.055.852.122l.114.027c.146-.148.304-.278.473-.386a6.39 6.39 0 0 0-.55.008c-.327.02-.65.068-.889.12zm-1.632 3.912l-.634-.384-.768-.348-.801-.241-.717-.124-.515-.032-.196.002.188.052.493.134.688.205.775.272.765.306.657.3.464.225.177.085-.153-.133-.423-.32zm-3.487-2.921l.609-.032.697-.083.693-.135.601-.158.42-.138.158-.06-.163.018-.429.057-.604.09-.69.105-.691.111-.603.1-.428.077-.162.034.162.01.43.005z" fill-opacity=".2"/></g><g fill="#6aaefe"><path d="M139.174 3.074s.038-.022-1.709 1.005l-3.431 2.019c-.411.242.108 1.153.52.911l3.431-2.019 1.708-1.005c.823-.484.097-1.274-.519-.911z"/><path d="M136.699 5.864c.061.109-.143.252-.281.334l-.256.154c-.137.083-.275.147-.336.038l-.611-1.097c-.061-.109.049-.223.186-.306l.256-.154c.138-.083.37-.175.431-.066l.611 1.097z"/><path d="M137.308 5.523c.061.11-.045.193-.184.277l-.259.156c-.138.083-.157.075-.218-.035l-.619-1.106c-.061-.11-.071-.153.068-.236l.259-.156c.139-.084.274-.116.335-.006l.618 1.106z"/><path d="M137.918 5.171c.061.11.055.133-.084.217l-.259.156c-.139.084-.257.135-.319.025l-.618-1.106c-.061-.11.029-.212.168-.296l.258-.156c.139-.084.175-.056.236.054l.618 1.106z"/><path d="M138.527 4.807c.061.109-.035.187-.172.269l-.257.155c-.137.083-.383.211-.443.102l-.612-1.097c-.061-.109.157-.288.294-.371l.257-.155c.137-.083.261-.109.322-.001l.611 1.097z"/><path d="M139.137 4.466c.062.11.064.128-.075.212l-.259.156c-.138.084-.266.141-.327.031l-.618-1.106c-.062-.11.037-.218.176-.301l.259-.156c.139-.084.165-.051.226.059l.618 1.106zm-5.229 9.408a2.26 2.26 0 0 1 1.996-2.551h0c1.255-.142 2.41.748 2.593 1.999l1.789 12.243-4.832.075-1.546-11.766z"/></g><g fill="#fff"><path d="M89.028 7.653c0-.323.262-.585.585-.585h4.23c.323 0 .585.262.585.585v17.327c0 .323-.262.585-.585.585h-4.23c-.323 0-.585-.262-.585-.585V7.653z"/><rect x="90.997" y=".933" width="1.458" height="10.218" rx=".251"/></g><defs><linearGradient id="A" x1="47.48" y1="26.662" x2="23.969" y2="26.662" href="#F"><stop stop-color="#7ab7ff"/><stop offset="1" stop-color="#1a80f8"/></linearGradient><linearGradient id="B" x1="47.479" y1="25.504" x2="23.969" y2="25.504" href="#F"><stop stop-color="#7ab7ff"/><stop offset="1" stop-color="#1a80f8"/></linearGradient><linearGradient id="C" x1="47.615" y1="16.221" x2=".002" y2="16.221" href="#F"><stop stop-color="#7ab7ff"/><stop offset="1" stop-color="#1a80f8"/></linearGradient><linearGradient id="D" x1="24.583" y1="25.603" x2="0" y2="25.603" href="#F"><stop stop-color="#7ab7ff"/><stop offset="1" stop-color="#1a80f8"/></linearGradient><linearGradient id="E" x1="47.612" y1="10.437" x2="24.582" y2="10.437" href="#F"><stop stop-color="#7ab7ff"/><stop offset="1" stop-color="#1a80f8"/></linearGradient><linearGradient id="F" gradientUnits="userSpaceOnUse"/></defs></svg>